<svg version="1.0" xmlns="http://www.w3.org/2000/svg" width="240.000000pt" height="70.000000pt" viewBox="0 0 582.000000 208.000000" preserveAspectRatio="xMidYMid meet">
      <g transform="translate(0.000000,208.000000) scale(0.100000,-0.100000)" fill="#000000" stroke="none">
        <path d="M5130 1625 c-10 -12 -10 -21 -1 -38 17 -33 11 -349 -8 -355 -11 -4\\n-13 10 -10 69 4 73 4 74 -21 74 -24 0 -25 -3 -22 -50 5 -97 11 -116 43 -127\\nl29 -10 0 -97 c0 -126 -28 -172 -75 -124 -14 14 -16 32 -14 107 4 88 3 91 -19\\n94 -27 4 -40 -23 -24 -49 18 -28 15 -130 -4 -157 -18 -27 -36 -28 -57 -4 -14\\n15 -17 40 -17 133 l0 114 29 17 c28 15 30 20 34 95 2 43 7 88 11 100 6 16 3\\n24 -12 32 -28 15 -57 -12 -42 -39 6 -10 10 -50 10 -89 0 -58 -3 -71 -16 -71\\n-13 0 -15 11 -13 68 4 63 3 67 -19 70 -27 4 -40 -23 -24 -49 8 -13 12 -101 12\\n-288 l0 -270 38 7 c49 9 364 9 425 0 l47 -8 0 273 c0 175 4 277 10 283 13 13\\n3 41 -18 49 -8 3 -23 -1 -31 -10 -13 -12 -13 -19 -3 -35 19 -32 17 -349 -4\\n-378 -34 -49 -74 -15 -74 63 0 49 3 55 28 67 l27 13 3 159 c1 88 7 165 12 172\\n16 18 0 44 -26 44 -29 0 -42 -24 -25 -44 7 -8 11 -34 9 -58 l-3 -43 -40 0 -40\\n0 -3 80 c-2 51 2 88 10 103 11 21 10 26 -6 38 -13 9 -24 10 -37 3 -21 -11 -25\\n-34 -9 -44 6 -3 10 -48 10 -100 0 -86 2 -95 22 -109 12 -9 40 -16 61 -16 l38\\n0 -3 -82 c-2 -54 -7 -83 -15 -86 -16 -5 -17 31 -3 58 7 14 6 23 -6 34 -19 19\\n-26 20 -42 4 -15 -15 -16 -48 -2 -48 17 0 12 -172 -6 -198 -18 -26 -37 -28\\n-58 -6 -14 13 -16 56 -16 310 0 191 4 302 11 315 19 37 -25 66 -51 34z" />
        <path d="M476 1431 c-16 -3 -33 -13 -37 -21 -12 -21 -130 -731 -123 -741 3 -5\\n34 -9 68 -9 l64 0 6 33 c3 17 11 71 17 120 l12 87 73 0 72 0 12 -72 c27 -167\\n27 -168 103 -168 58 0 56 -15 17 223 -49 298 -100 519 -122 540 -21 18 -100\\n22 -162 8z m123 -388 c1 -21 -4 -23 -47 -23 l-48 0 19 123 c10 67 21 129 24\\n137 6 15 51 -192 52 -237z" />
        <path d="M1700 1422 c-27 -22 -33 -79 -11 -106 16 -19 91 -22 109 -4 16 16 15\\n93 -1 107 -27 22 -72 24 -97 3z" />
        <path d="M3660 1433 c-40 -14 -55 -87 -24 -117 24 -25 90 -21 108 6 43 61 -14\\n136 -84 111z" />
        <path d="M4418 1226 c-30 -61 -33 -65 -75 -71 -39 -6 -43 -9 -43 -36 0 -28 2\\n-29 45 -29 l45 0 0 -172 c0 -169 1 -174 28 -223 26 -49 28 -50 72 -50 39 0 45\\n2 42 20 -2 11 -6 111 -9 223 l-5 202 56 0 56 0 0 34 0 35 -52 3 -53 3 -13 63\\nc-12 55 -16 62 -38 62 -20 0 -30 -12 -56 -64z" />
        <path d="M931 1167 c-53 -18 -76 -58 -76 -127 0 -53 3 -62 34 -94 19 -19 64\\n-51 101 -71 75 -39 84 -51 66 -86 -16 -33 -64 -36 -121 -8 l-45 23 -25 -24\\nc-14 -13 -25 -29 -25 -35 0 -17 51 -62 83 -74 49 -19 158 -14 195 9 63 39 92\\n154 53 214 -22 34 -55 56 -138 97 -52 24 -63 34 -63 54 0 47 61 55 134 18 35\\n-18 46 -7 46 48 0 34 -4 38 -40 53 -47 19 -130 20 -179 3z" />
        <path d="M1335 1161 c-47 -22 -63 -46 -71 -105 -11 -74 33 -129 146 -186 65\\n-33 77 -52 55 -86 -20 -30 -61 -31 -116 -3 -47 23 -61 21 -85 -16 -16 -24 -16\\n-27 2 -46 56 -62 198 -81 265 -36 45 29 69 80 69 142 0 67 -30 102 -135 158\\n-89 47 -108 77 -61 98 20 9 35 8 73 -5 73 -26 76 -25 85 18 10 46 2 57 -51 75\\n-51 17 -131 13 -176 -8z" />
        <path d="M1685 1167 c-3 -7 -4 -123 -3 -257 l3 -245 68 -3 67 -3 0 254 0 255\\n-22 6 c-41 10 -108 7 -113 -7z" />
        <path d="M1975 1166 c-59 -26 -70 -49 -73 -153 -4 -108 12 -169 55 -203 l25\\n-20 -18 -71 c-18 -70 -18 -71 1 -85 13 -10 48 -14 111 -14 84 0 93 -2 99 -20\\n10 -31 -3 -57 -32 -65 -15 -3 -66 -3 -115 1 l-88 7 0 -47 c0 -41 3 -46 28 -53\\n15 -4 72 -8 127 -7 110 0 149 13 180 60 26 40 30 131 8 174 -21 40 -42 48\\n-140 49 -39 1 -74 4 -76 9 -3 4 -1 17 4 30 7 19 16 22 56 22 68 0 113 26 141\\n80 20 39 23 56 19 130 -2 47 -7 92 -11 101 -5 13 0 19 24 28 25 8 31 15 28 33\\n-3 23 -5 23 -163 25 -116 2 -168 -1 -190 -11z m166 -93 c9 -10 14 -43 14 -95\\n0 -67 -3 -82 -19 -94 -29 -21 -83 -18 -96 5 -11 22 -14 160 -2 177 18 27 83\\n31 103 7z" />
        <path d="M2400 920 l0 -260 65 0 65 0 2 197 3 197 47 20 c26 11 51 16 55 12 5\\n-4 10 -101 13 -214 l5 -207 68 -3 68 -3 -3 213 c-3 235 -10 263 -68 293 -42\\n22 -84 19 -142 -11 l-52 -26 -19 26 c-15 21 -27 26 -63 26 l-44 0 0 -260z" />
        <path d="M2890 920 l0 -260 65 0 65 0 2 197 3 197 47 20 c26 11 51 16 55 12 5\\n-4 10 -101 13 -214 l5 -207 68 -3 67 -3 0 196 0 196 46 21 c35 15 49 17 58 8\\n7 -7 13 -81 16 -213 l5 -202 68 -3 67 -3 0 174 c0 210 -10 271 -49 311 -44 44\\n-101 46 -175 6 -52 -27 -61 -29 -68 -15 -13 22 -62 45 -98 45 -17 0 -54 -12\\n-82 -26 l-52 -26 -19 26 c-15 21 -27 26 -63 26 l-44 0 0 -260z" />
        <path d="M3632 923 l3 -258 63 -3 62 -3 0 254 c0 287 6 267 -81 267 l-49 0 2\\n-257z" />
        <path d="M3860 920 l0 -260 65 0 65 0 2 197 3 197 47 20 c26 11 51 16 55 12 5\\n-4 10 -101 13 -214 l5 -207 68 -3 68 -3 -3 213 c-3 235 -10 263 -68 293 -42\\n22 -84 19 -142 -11 l-52 -26 -19 26 c-15 21 -27 26 -63 26 l-44 0 0 -260z" />
        <path d="M4992 730 c-29 -4 -55 -10 -57 -11 -2 -2 19 -34 46 -71 l48 -67 123\\n-3 122 -3 52 70 c49 67 51 70 30 78 -30 12 -300 18 -364 7z" />
        <path d="M5066 523 c91 -141 87 -136 103 -114 9 12 33 48 54 81 l37 60 -106 0\\n-106 0 18 -27z" />
      </g>
    </svg>